<?xml version="1.0" encoding="utf-8"?>
<!-- Generator: Adobe Illustrator 25.2.1, SVG Export Plug-In . SVG Version: 6.00 Build 0)  -->
<svg version="1.1" id="Lager_1" xmlns="http://www.w3.org/2000/svg" xmlns:xlink="http://www.w3.org/1999/xlink" x="0px" y="0px"
	 viewBox="0 0 375 314" style="enable-background:new 0 0 375 314;" xml:space="preserve">
<style type="text/css">
	.st0{fill:#E3B1BA;}
	.st1{opacity:0.5;fill:#FFFFFF;enable-background:new    ;}
	.st2{fill:#F5DADF;}
</style>
<g>
	<path class="st0" d="M0,220l2.39,35.68c0.04,3.95,0.83,7.86,2.34,11.5c10.31,24.95,45.42,25.58,56.62,1.02l3.25-7.13
		c3.85-11.72,20.67-10.98,23.49,1.03l4.19,17.91c0.29,1.25,0.45,2.52,0.46,3.8l0.01,1.3c0.15,16.1,13.32,29.03,29.43,28.88
		l3.76-0.04c18.18-0.17,32.77-15.04,32.6-33.22l-0.4-42.85C158.03,225.76,163,211,170,202l8-9c9.5-6.79,18.07-10.55,29.3-10.71
		c16.07-0.15,30.62,9.51,36.7,24.39l1.45,3.55c2.16,5.27,3.29,10.9,3.34,16.59l0.28,30.18c0.14,14.85,6.87,28.86,18.37,38.26
		l7.04,5.75c9.05,7.4,20.41,11.39,32.1,11.28l14.29-0.13c20.24-0.19,38.37-12.56,45.92-31.35l1.37-3.4
		c2.44-6.08,3.67-12.57,3.61-19.12L374,222V-0.16H0L0,220z"/>
	<path class="st1" d="M286,243c1,5,7,17,13.35,21.07C304,266,337.22,282.65,315,294c-5.99,3.06-30.25,4.02-42.81-20.57
		c-12.56-24.59-9.86-54.68-3.87-57.74C268,216,277,211,286,243z"/>
	<path class="st2" d="M375,164.52c0,12.45-4.57,24.46-12.84,33.76c-9.64,10.85-23.47,17.06-37.99,17.06h-9.11
		c-5.36,0-10.7-0.61-15.92-1.8l-2.53-0.58c-17.38-3.99-33.26-12.84-45.8-25.52l-14.25-14.4c-7.96-8.05-17.39-14.51-27.78-19.02
		l-11.66-5.07c-12.01-5.22-25.5-5.96-38.01-2.08l-9.37,2.91c-20.53,6.37-33.29,26.82-29.98,48.05c2.29,14.7-3.12,29.55-14.34,39.32
		l-0.7,0.61c-8.2,7.15-18.71,11.09-29.59,11.09H62.11c-14.57,0-28.65-5.3-39.6-14.9c-10.05-8.81-16.87-20.72-19.39-33.85l-1.6-8.34
		C0.51,186.49,0,181.14,0,175.79L0-0.16l375,0V164.52z"/>
	<path class="st1" d="M20.38,254.51c0.13,5.1,3.19,9.53,4.61,11.26c5.69,6.78,8.42,14.49-0.89,13.37
		c-2.51-0.3-10.82-6.26-13.15-16.5c-2.33-10.23-2.8-14.3,1.14-17.53C15.55,242.27,20.11,244.31,20.38,254.51z"/>
	<path class="st1" d="M45.1,178.53C45,190,48.21,208.14,57,214c18,12,51,13,19,22c-7.71,2.17-48.23-4.02-55.35-36.1
		s-6.56-59.49,1.26-61.23C28.45,137.22,45.32,153.16,45.1,178.53z"/>
	<path class="st1" d="M282,146c4.56,11.44,21,23,33,28c18.55,7.73,36.04-6.68,27.85,18.13c-3.06,9.28-50.51,13.07-73.56-11.23
		S223.42,138.19,231,131C237.34,124.99,272.16,121.32,282,146z"/>
	<path class="st1" d="M113.87,273.1c-0.07,6.22,4.64,18.51,8.83,20.19c11.72,2.51,12.56,16.75-9.21,11.72
		c-3.5-0.81-10.72-9.11-13.54-21.49s-6.51-19.57-0.7-23.72C104.35,256.15,114.01,260.65,113.87,273.1z"/>
</g>
</svg>
